<?xml version="1.0" standalone="no"?>
<!DOCTYPE svg PUBLIC "-//W3C//DTD SVG 20010904//EN"
 "http://www.w3.org/TR/2001/REC-SVG-20010904/DTD/svg10.dtd">
<svg version="1.0" xmlns="http://www.w3.org/2000/svg"
 width="640.000000pt" height="640.000000pt" viewBox="0 0 640.000000 640.000000"
 preserveAspectRatio="xMidYMid meet">

<g transform="translate(0.000000,640.000000) scale(0.100000,-0.100000)"
fill="#000000" stroke="none">
<path d="M0 3200 l0 -3200 3200 0 3200 0 0 3200 0 3200 -3200 0 -3200 0 0
-3200z m3248 2303 c82 -147 178 -343 237 -489 60 -147 178 -493 215 -631 26
-99 52 -128 110 -126 133 6 229 171 231 402 1 127 9 130 62 20 67 -141 110
-251 141 -364 16 -55 32 -104 37 -109 14 -15 30 43 30 110 1 69 -15 157 -37
210 -8 19 -13 34 -11 34 2 0 34 -39 70 -87 123 -166 240 -366 286 -495 52
-144 103 -375 117 -523 3 -33 7 -68 10 -77 3 -10 1 -18 -5 -18 -6 0 -11 9 -11
19 0 23 -16 36 -25 21 -4 -6 -25 8 -51 35 -25 25 -56 53 -70 61 -13 9 -24 21
-24 28 0 12 -93 76 -110 76 -5 0 -10 4 -10 9 0 5 -9 12 -19 16 -10 3 -35 21
-56 40 -20 19 -40 35 -44 35 -4 0 -32 13 -62 30 -30 16 -60 30 -67 30 -6 0
-29 18 -51 40 -21 22 -43 40 -49 40 -5 0 -13 11 -16 25 -4 14 -11 23 -16 20
-5 -3 -11 3 -13 12 -2 10 -3 0 -2 -22 2 -22 1 -32 -2 -22 -2 9 -9 17 -14 17
-5 0 -9 36 -9 80 0 83 -15 176 -31 185 -5 4 -18 -10 -30 -29 -12 -20 -26 -33
-32 -29 -5 3 -7 1 -3 -5 3 -6 -4 -22 -17 -36 -28 -30 -44 -28 -130 15 -32 16
-67 29 -78 29 -10 0 -19 4 -19 8 0 12 -74 34 -78 23 -2 -5 -17 -5 -35 -1 -18
5 -51 13 -73 19 -23 6 -62 11 -87 11 -25 0 -48 3 -51 8 -10 17 -628 -9 -634
-27 -2 -6 -16 -11 -30 -11 -15 0 -40 -7 -56 -15 -15 -8 -38 -15 -51 -15 -12 0
-28 -7 -35 -15 -7 -9 -28 -22 -46 -31 -18 -9 -35 -23 -37 -32 -9 -40 -19 152
-14 263 6 132 24 212 72 325 54 128 118 214 291 387 89 90 183 191 209 225 61
81 131 227 153 316 9 40 18 72 19 72 1 0 24 -39 51 -87z m-1088 -873 c-17 -89
-12 -265 9 -355 30 -122 115 -309 161 -350 15 -14 17 -21 9 -32 -10 -11 -15
-11 -31 4 -18 16 -19 16 -25 -5 -4 -17 -11 -21 -24 -17 -14 5 -34 -8 -76 -49
-31 -31 -67 -59 -79 -62 -13 -4 -24 -10 -24 -14 0 -5 -10 -12 -21 -15 -12 -4
-40 -26 -63 -49 -22 -23 -53 -48 -68 -55 -14 -7 -54 -35 -87 -62 -33 -27 -69
-49 -80 -49 -12 0 -21 -6 -21 -13 0 -20 -37 -50 -53 -44 -8 3 -14 0 -14 -6 1
-36 -4 -57 -14 -57 -16 0 -4 151 22 290 62 328 141 519 327 790 85 124 153
212 159 206 2 -1 -1 -27 -7 -56z m183 -765 c-3 -9 -8 -14 -10 -11 -3 3 -2 9 2
15 9 16 15 13 8 -4z m-696 -512 c-3 -10 -5 -4 -5 12 0 17 2 24 5 18 2 -7 2
-21 0 -30z m950 -254 c90 -34 184 -132 243 -254 48 -98 70 -187 70 -283 0 -66
-19 -142 -35 -142 -4 0 -33 24 -66 53 -90 82 -148 110 -239 115 -66 4 -84 1
-141 -23 -98 -42 -111 -40 -131 20 -22 63 -23 189 -3 274 44 185 174 289 302
240z m1336 -3 c72 -30 144 -139 168 -255 16 -77 7 -226 -17 -274 -21 -44 -18
-44 -133 -2 -134 49 -241 23 -369 -90 -35 -30 -67 -55 -72 -55 -20 0 -32 76
-28 169 9 158 66 292 176 412 88 96 190 131 275 95z m-1717 -879 c298 -180
759 -281 1126 -248 379 34 701 145 950 326 34 25 68 45 75 45 39 0 -68 -227
-178 -376 -65 -90 -196 -214 -291 -277 -429 -286 -962 -290 -1388 -12 -112 74
-280 242 -355 355 -78 119 -147 283 -130 311 4 5 34 -12 68 -39 34 -26 89 -64
123 -85z"/>
</g>
</svg>
